<svg width="85" height="26" viewBox="0 0 85 26" fill="none" xmlns="http://www.w3.org/2000/svg">
<rect x="0.478271" y="0.776573" width="84.5217" height="24.3913" rx="3.75652" fill="#369FFF"/>
<path d="M31.0314 15.97V17.4722H26.3257V15.97H31.0314ZM26.9484 8.12494V17.4722H25.0225V8.12494H26.9484ZM32.7766 14.0697V13.9349C32.7766 13.4256 32.8493 12.9569 32.9949 12.5289C33.1404 12.0967 33.3522 11.7222 33.6304 11.4055C33.9086 11.0888 34.251 10.8427 34.6576 10.6672C35.0642 10.4874 35.5307 10.3976 36.0571 10.3976C36.5835 10.3976 37.0522 10.4874 37.4631 10.6672C37.8739 10.8427 38.2185 11.0888 38.4967 11.4055C38.7791 11.7222 38.9931 12.0967 39.1386 12.5289C39.2842 12.9569 39.3569 13.4256 39.3569 13.9349V14.0697C39.3569 14.5747 39.2842 15.0434 39.1386 15.4757C38.9931 15.9036 38.7791 16.2781 38.4967 16.5991C38.2185 16.9158 37.8761 17.1619 37.4695 17.3374C37.0629 17.5129 36.5964 17.6006 36.07 17.6006C35.5435 17.6006 35.0749 17.5129 34.664 17.3374C34.2574 17.1619 33.9129 16.9158 33.6304 16.5991C33.3522 16.2781 33.1404 15.9036 32.9949 15.4757C32.8493 15.0434 32.7766 14.5747 32.7766 14.0697ZM34.6255 13.9349V14.0697C34.6255 14.3607 34.6512 14.6325 34.7025 14.885C34.7539 15.1375 34.8352 15.3601 34.9465 15.5527C35.062 15.741 35.2118 15.8887 35.3959 15.9957C35.5799 16.1027 35.8046 16.1562 36.07 16.1562C36.3267 16.1562 36.5472 16.1027 36.7312 15.9957C36.9152 15.8887 37.0629 15.741 37.1742 15.5527C37.2854 15.3601 37.3668 15.1375 37.4181 14.885C37.4738 14.6325 37.5016 14.3607 37.5016 14.0697V13.9349C37.5016 13.6524 37.4738 13.3871 37.4181 13.1388C37.3668 12.8863 37.2833 12.6638 37.1677 12.4712C37.0565 12.2743 36.9088 12.1202 36.7248 12.0089C36.5407 11.8977 36.3182 11.842 36.0571 11.842C35.796 11.842 35.5735 11.8977 35.3895 12.0089C35.2097 12.1202 35.062 12.2743 34.9465 12.4712C34.8352 12.6638 34.7539 12.8863 34.7025 13.1388C34.6512 13.3871 34.6255 13.6524 34.6255 13.9349ZM45.9426 10.526H47.6182V17.2411C47.6182 17.8745 47.477 18.4117 47.1945 18.8525C46.9163 19.2976 46.5268 19.6336 46.0261 19.8604C45.5253 20.0915 44.9433 20.2071 44.2799 20.2071C43.9889 20.2071 43.6807 20.1686 43.3554 20.0915C43.0344 20.0145 42.7263 19.8946 42.431 19.732C42.14 19.5694 41.896 19.3639 41.6991 19.1157L42.5144 18.0243C42.7284 18.2726 42.9767 18.4652 43.2591 18.6021C43.5416 18.7433 43.854 18.814 44.1964 18.814C44.5303 18.814 44.8127 18.7519 45.0439 18.6278C45.275 18.508 45.4526 18.3303 45.5767 18.0949C45.7008 17.8638 45.7629 17.5835 45.7629 17.2539V12.1309L45.9426 10.526ZM41.269 14.0825V13.9477C41.269 13.417 41.3332 12.9355 41.4616 12.5033C41.5943 12.0667 41.7804 11.6922 42.0201 11.3798C42.2641 11.0674 42.5594 10.8256 42.9061 10.6544C43.2527 10.4832 43.6443 10.3976 44.0809 10.3976C44.5431 10.3976 44.9304 10.4832 45.2429 10.6544C45.5553 10.8256 45.8121 11.0695 46.0133 11.3862C46.2144 11.6987 46.3706 12.0689 46.4819 12.4969C46.5975 12.9206 46.6873 13.3849 46.7515 13.89V14.1853C46.6873 14.6689 46.591 15.1183 46.4626 15.5334C46.3342 15.9486 46.1652 16.3124 45.9555 16.6248C45.7458 16.933 45.4847 17.1726 45.1723 17.3438C44.8641 17.515 44.496 17.6006 44.068 17.6006C43.6401 17.6006 43.2527 17.5129 42.9061 17.3374C42.5637 17.1619 42.2705 16.9158 42.0265 16.5991C41.7826 16.2824 41.5943 15.9101 41.4616 15.4821C41.3332 15.0541 41.269 14.5876 41.269 14.0825ZM43.1179 13.9477V14.0825C43.1179 14.3693 43.1457 14.6368 43.2014 14.885C43.257 15.1333 43.3426 15.3537 43.4582 15.5463C43.578 15.7346 43.7256 15.8822 43.9011 15.9892C44.0809 16.092 44.2927 16.1433 44.5367 16.1433C44.8748 16.1433 45.1509 16.0727 45.3648 15.9315C45.5788 15.7859 45.7393 15.5869 45.8463 15.3344C45.9533 15.0819 46.0154 14.7909 46.0325 14.4613V13.6203C46.024 13.3507 45.9876 13.1089 45.9234 12.8949C45.8592 12.6766 45.7693 12.4904 45.6537 12.3364C45.5382 12.1823 45.3884 12.0624 45.2044 11.9768C45.0203 11.8912 44.802 11.8484 44.5495 11.8484C44.3056 11.8484 44.0937 11.9041 43.914 12.0154C43.7385 12.1224 43.5908 12.27 43.471 12.4583C43.3554 12.6466 43.2677 12.8692 43.2078 13.126C43.1479 13.3785 43.1179 13.6524 43.1179 13.9477ZM52.0597 10.526V17.4722H50.2044V10.526H52.0597ZM50.0888 8.71557C50.0888 8.44594 50.183 8.22338 50.3713 8.04791C50.5596 7.87243 50.8121 7.78469 51.1288 7.78469C51.4413 7.78469 51.6916 7.87243 51.88 8.04791C52.0725 8.22338 52.1688 8.44594 52.1688 8.71557C52.1688 8.9852 52.0725 9.20776 51.88 9.38323C51.6916 9.55871 51.4413 9.64644 51.1288 9.64644C50.8121 9.64644 50.5596 9.55871 50.3713 9.38323C50.183 9.20776 50.0888 8.9852 50.0888 8.71557ZM56.4498 12.0089V17.4722H54.6009V10.526H56.3343L56.4498 12.0089ZM56.1802 13.7551H55.6795C55.6795 13.2416 55.7458 12.7793 55.8785 12.3685C56.0112 11.9533 56.1973 11.6002 56.437 11.3092C56.6767 11.0139 56.9613 10.7892 57.2908 10.6351C57.6247 10.4767 57.997 10.3976 58.4079 10.3976C58.7332 10.3976 59.0306 10.4446 59.3003 10.5388C59.5699 10.633 59.801 10.7828 59.9936 10.9882C60.1905 11.1936 60.3403 11.4654 60.443 11.8035C60.55 12.1416 60.6035 12.5546 60.6035 13.0425V17.4722H58.7417V13.0361C58.7417 12.728 58.6989 12.4883 58.6133 12.3171C58.5277 12.1459 58.4015 12.0261 58.2346 11.9576C58.0719 11.8848 57.8708 11.8484 57.6311 11.8484C57.3829 11.8484 57.1667 11.8977 56.9827 11.9961C56.8029 12.0945 56.6531 12.2315 56.5333 12.407C56.4177 12.5782 56.33 12.7793 56.2701 13.0104C56.2102 13.2416 56.1802 13.4898 56.1802 13.7551Z" fill="white"/>
</svg>
