<svg width="238" height="26" viewBox="0 0 238 26" fill="none" xmlns="http://www.w3.org/2000/svg">
<rect x="0.780029" y="0.0504456" width="236.44" height="25.9532" rx="3.98128" fill="#369FFF"/>
<path d="M75.1744 16.5574L77.8551 18.6802L76.5692 19.7961L73.9293 17.6732L75.1744 16.5574ZM77.9232 12.8424V13.3119C77.9232 14.0649 77.8211 14.7407 77.617 15.3395C77.4174 15.9382 77.1294 16.4485 76.7529 16.8704C76.3764 17.2877 75.9319 17.6075 75.4193 17.8297C74.9068 18.052 74.3375 18.1631 73.7115 18.1631C73.0901 18.1631 72.5209 18.052 72.0038 17.8297C71.4867 17.6075 71.0399 17.2877 70.6634 16.8704C70.2869 16.4485 69.9943 15.9382 69.7857 15.3395C69.5815 14.7407 69.4795 14.0649 69.4795 13.3119V12.8424C69.4795 12.0849 69.5815 11.4091 69.7857 10.8149C69.9943 10.2161 70.2846 9.70581 70.6566 9.28396C71.0285 8.86212 71.473 8.54006 71.9901 8.3178C72.5072 8.09554 73.0765 7.98441 73.6979 7.98441C74.3239 7.98441 74.8932 8.09554 75.4057 8.3178C75.9228 8.54006 76.3696 8.86212 76.7461 9.28396C77.1226 9.70581 77.4129 10.2161 77.617 10.8149C77.8211 11.4091 77.9232 12.0849 77.9232 12.8424ZM75.8616 13.3119V12.8288C75.8616 12.3026 75.8117 11.84 75.7119 11.4408C75.6167 11.0416 75.476 10.706 75.2901 10.4338C75.1086 10.1617 74.8841 9.95755 74.6165 9.82147C74.3488 9.68086 74.0427 9.61055 73.6979 9.61055C73.3532 9.61055 73.047 9.68086 72.7794 9.82147C72.5118 9.95755 72.2873 10.1617 72.1058 10.4338C71.9244 10.706 71.786 11.0416 71.6908 11.4408C71.5955 11.84 71.5479 12.3026 71.5479 12.8288V13.3119C71.5479 13.8335 71.5955 14.2962 71.6908 14.6999C71.786 15.0991 71.9244 15.437 72.1058 15.7137C72.2918 15.9859 72.5186 16.1922 72.7862 16.3329C73.0584 16.4735 73.3668 16.5438 73.7115 16.5438C74.0563 16.5438 74.3602 16.4735 74.6233 16.3329C74.8909 16.1922 75.1154 15.9859 75.2969 15.7137C75.4828 15.437 75.6235 15.0991 75.7187 14.6999C75.814 14.2962 75.8616 13.8335 75.8616 13.3119ZM85.9848 8.12049H88.0192V14.6659C88.0192 15.4279 87.8559 16.0698 87.5293 16.5914C87.2072 17.113 86.7604 17.5054 86.1889 17.7685C85.6219 18.0316 84.9687 18.1631 84.2294 18.1631C83.49 18.1631 82.8323 18.0316 82.2562 17.7685C81.6847 17.5054 81.2356 17.113 80.909 16.5914C80.587 16.0698 80.426 15.4279 80.426 14.6659V8.12049H82.4671V14.6659C82.4671 15.1104 82.5374 15.4733 82.6781 15.7545C82.8187 16.0357 83.0205 16.2421 83.2836 16.3737C83.5512 16.5052 83.8665 16.571 84.2294 16.571C84.6013 16.571 84.9166 16.5052 85.1751 16.3737C85.4382 16.2421 85.6378 16.0357 85.7739 15.7545C85.9145 15.4733 85.9848 15.1104 85.9848 14.6659V8.12049ZM97.462 16.4349V18.027H92.1889V16.4349H97.462ZM92.8557 8.12049V18.027H90.8145V8.12049H92.8557ZM96.7748 12.1552V13.7065H92.1889V12.1552H96.7748ZM97.4552 8.12049V9.71942H92.1889V8.12049H97.4552ZM99.7674 8.12049H103.462C104.219 8.12049 104.87 8.23389 105.415 8.46068C105.964 8.68748 106.385 9.02314 106.68 9.46767C106.975 9.91219 107.122 10.4588 107.122 11.1074C107.122 11.6381 107.032 12.094 106.85 12.475C106.673 12.8515 106.422 13.1668 106.095 13.4208C105.773 13.6702 105.394 13.8698 104.959 14.0195L104.312 14.3597H101.101L101.087 12.7676H103.476C103.834 12.7676 104.131 12.7041 104.367 12.5771C104.603 12.4501 104.78 12.2732 104.898 12.0464C105.02 11.8196 105.081 11.5565 105.081 11.2571C105.081 10.9396 105.022 10.6652 104.904 10.4338C104.786 10.2025 104.607 10.0256 104.367 9.90312C104.126 9.78065 103.825 9.71942 103.462 9.71942H101.809V18.027H99.7674V8.12049ZM105.306 18.027L103.047 13.6113L105.204 13.5977L107.49 17.9318V18.027H105.306ZM117.946 12.8424V13.3119C117.946 14.0649 117.844 14.7407 117.64 15.3395C117.436 15.9382 117.148 16.4485 116.776 16.8704C116.404 17.2877 115.96 17.6075 115.443 17.8297C114.93 18.052 114.361 18.1631 113.735 18.1631C113.113 18.1631 112.544 18.052 112.027 17.8297C111.514 17.6075 111.07 17.2877 110.693 16.8704C110.317 16.4485 110.024 15.9382 109.816 15.3395C109.612 14.7407 109.51 14.0649 109.51 13.3119V12.8424C109.51 12.0849 109.612 11.4091 109.816 10.8149C110.02 10.2161 110.308 9.70581 110.68 9.28396C111.056 8.86212 111.501 8.54006 112.013 8.3178C112.531 8.09554 113.1 7.98441 113.721 7.98441C114.347 7.98441 114.916 8.09554 115.429 8.3178C115.946 8.54006 116.391 8.86212 116.763 9.28396C117.139 9.70581 117.429 10.2161 117.633 10.8149C117.842 11.4091 117.946 12.0849 117.946 12.8424ZM115.885 13.3119V12.8288C115.885 12.3026 115.837 11.84 115.742 11.4408C115.647 11.0416 115.506 10.706 115.32 10.4338C115.134 10.1617 114.907 9.95755 114.64 9.82147C114.372 9.68086 114.066 9.61055 113.721 9.61055C113.376 9.61055 113.07 9.68086 112.803 9.82147C112.54 9.95755 112.315 10.1617 112.129 10.4338C111.948 10.706 111.809 11.0416 111.714 11.4408C111.619 11.84 111.571 12.3026 111.571 12.8288V13.3119C111.571 13.8335 111.619 14.2962 111.714 14.6999C111.809 15.0991 111.95 15.437 112.136 15.7137C112.322 15.9859 112.549 16.1922 112.816 16.3329C113.084 16.4735 113.39 16.5438 113.735 16.5438C114.08 16.5438 114.386 16.4735 114.653 16.3329C114.921 16.1922 115.146 15.9859 115.327 15.7137C115.508 15.437 115.647 15.0991 115.742 14.6999C115.837 14.2962 115.885 13.8335 115.885 13.3119ZM133.253 12.8424V13.3119C133.253 14.0649 133.151 14.7407 132.947 15.3395C132.743 15.9382 132.455 16.4485 132.083 16.8704C131.711 17.2877 131.266 17.6075 130.749 17.8297C130.237 18.052 129.668 18.1631 129.042 18.1631C128.42 18.1631 127.851 18.052 127.334 17.8297C126.821 17.6075 126.377 17.2877 126 16.8704C125.624 16.4485 125.331 15.9382 125.122 15.3395C124.918 14.7407 124.816 14.0649 124.816 13.3119V12.8424C124.816 12.0849 124.918 11.4091 125.122 10.8149C125.327 10.2161 125.615 9.70581 125.987 9.28396C126.363 8.86212 126.808 8.54006 127.32 8.3178C127.837 8.09554 128.407 7.98441 129.028 7.98441C129.654 7.98441 130.223 8.09554 130.736 8.3178C131.253 8.54006 131.697 8.86212 132.069 9.28396C132.446 9.70581 132.736 10.2161 132.94 10.8149C133.149 11.4091 133.253 12.0849 133.253 12.8424ZM131.192 13.3119V12.8288C131.192 12.3026 131.144 11.84 131.049 11.4408C130.953 11.0416 130.813 10.706 130.627 10.4338C130.441 10.1617 130.214 9.95755 129.946 9.82147C129.679 9.68086 129.373 9.61055 129.028 9.61055C128.683 9.61055 128.377 9.68086 128.109 9.82147C127.846 9.95755 127.622 10.1617 127.436 10.4338C127.254 10.706 127.116 11.0416 127.021 11.4408C126.926 11.84 126.878 12.3026 126.878 12.8288V13.3119C126.878 13.8335 126.926 14.2962 127.021 14.6999C127.116 15.0991 127.257 15.437 127.443 15.7137C127.629 15.9859 127.855 16.1922 128.123 16.3329C128.391 16.4735 128.697 16.5438 129.042 16.5438C129.386 16.5438 129.692 16.4735 129.96 16.3329C130.228 16.1922 130.452 15.9859 130.634 15.7137C130.815 15.437 130.953 15.0991 131.049 14.6999C131.144 14.2962 131.192 13.8335 131.192 13.3119ZM144.45 9.81467L141.756 18.027H139.585L143.266 8.12049H144.648L144.45 9.81467ZM146.689 18.027L143.988 9.81467L143.77 8.12049H145.165L148.866 18.027H146.689ZM146.566 14.3393V15.9382H141.334V14.3393H146.566ZM154.757 14.4958H152.233V12.9037H154.757C155.147 12.9037 155.465 12.8402 155.71 12.7132C155.955 12.5816 156.134 12.4002 156.247 12.1688C156.361 11.9375 156.417 11.6767 156.417 11.3864C156.417 11.0915 156.361 10.8171 156.247 10.5631C156.134 10.3091 155.955 10.105 155.71 9.95075C155.465 9.79653 155.147 9.71942 154.757 9.71942H152.941V18.027H150.899V8.12049H154.757C155.533 8.12049 156.197 8.2611 156.751 8.54233C157.309 8.81903 157.735 9.20232 158.03 9.6922C158.325 10.1821 158.472 10.7423 158.472 11.3728C158.472 12.0123 158.325 12.5657 158.03 13.0329C157.735 13.5001 157.309 13.8608 156.751 14.1148C156.197 14.3688 155.533 14.4958 154.757 14.4958ZM164.853 14.4958H162.329V12.9037H164.853C165.243 12.9037 165.561 12.8402 165.806 12.7132C166.051 12.5816 166.23 12.4002 166.343 12.1688C166.457 11.9375 166.513 11.6767 166.513 11.3864C166.513 11.0915 166.457 10.8171 166.343 10.5631C166.23 10.3091 166.051 10.105 165.806 9.95075C165.561 9.79653 165.243 9.71942 164.853 9.71942H163.037V18.027H160.995V8.12049H164.853C165.629 8.12049 166.293 8.2611 166.847 8.54233C167.405 8.81903 167.831 9.20232 168.126 9.6922C168.421 10.1821 168.568 10.7423 168.568 11.3728C168.568 12.0123 168.421 12.5657 168.126 13.0329C167.831 13.5001 167.405 13.8608 166.847 14.1148C166.293 14.3688 165.629 14.4958 164.853 14.4958Z" fill="white"/>
</svg>
