<svg width="28" height="33" viewBox="0 0 28 33" fill="none" xmlns="http://www.w3.org/2000/svg">
<path d="M24.796 3.50045H18.5732C17.9479 1.6502 16.3104 0.310364 14.375 0.310364C12.4397 0.310364 10.8021 1.6502 10.1769 3.50045H3.9541C2.31652 3.50045 0.976685 4.93599 0.976685 6.69053V29.0211C0.976685 30.7757 2.31652 32.2112 3.9541 32.2112H24.796C26.4336 32.2112 27.7734 30.7757 27.7734 29.0211V6.69053C27.7734 4.93599 26.4336 3.50045 24.796 3.50045ZM14.375 3.50045C15.1938 3.50045 15.8637 4.21822 15.8637 5.09549C15.8637 5.97276 15.1938 6.69053 14.375 6.69053C13.5563 6.69053 12.8863 5.97276 12.8863 5.09549C12.8863 4.21822 13.5563 3.50045 14.375 3.50045ZM17.3525 25.831H6.93151V22.641H17.3525V25.831ZM21.8186 19.4509H6.93151V16.2608H21.8186V19.4509ZM21.8186 13.0707H6.93151V9.88062H21.8186V13.0707Z" fill="#369FFF"/>
</svg>
